<?xml version="1.0" encoding="UTF-8"?>
<svg width="21px" height="19px" viewBox="0 0 21 19" version="1.1" xmlns="http://www.w3.org/2000/svg" xmlns:xlink="http://www.w3.org/1999/xlink">
    <title>icon-TV_close</title>
    <defs>
        <linearGradient x1="50%" y1="0%" x2="50%" y2="100%" id="linearGradient-1">
            <stop stop-color="#FFFFFF" offset="0%"></stop>
            <stop stop-color="#E0E0E0" offset="100%"></stop>
        </linearGradient>
        <linearGradient x1="50%" y1="0%" x2="50%" y2="100%" id="linearGradient-2">
            <stop stop-color="#F07B2F" offset="0%"></stop>
            <stop stop-color="#DF5B00" offset="100%"></stop>
        </linearGradient>
    </defs>
    <g id="main" stroke="none" stroke-width="1" fill="none" fill-rule="evenodd">
        <g id="home-TV" transform="translate(-10, -38)">
            <g id="header" transform="translate(-1, 0)">
                <g id="TV-head_close" transform="translate(0, 29)">
                    <g id="Group" transform="translate(11, 9)">
                        <path d="M17,0 C19.209139,-4.05812251e-16 21,1.790861 21,4 L21,13 C21,15.209139 19.209139,17 17,17 L14,17 L14,19 L7,19 L7,17 L4,17 C1.790861,17 2.705415e-16,15.209139 0,13 L0,4 C-2.705415e-16,1.790861 1.790861,4.05812251e-16 4,0 L17,0 Z M17,2 L4,2 C2.8954305,2 2,2.8954305 2,4 L2,12 C2,13.1045695 2.8954305,14 4,14 L17,14 C18.1045695,14 19,13.1045695 19,12 L19,4 C19,2.8954305 18.1045695,2 17,2 Z" id="Combined-Shape" fill="url(#linearGradient-1)"></path>
                        <rect id="Rectangle-8-Copy" fill="url(#linearGradient-2)" x="2" y="2" width="17" height="12" rx="2"></rect>
                        <path d="M13.1356386,4.68413601 L14.065864,5.6143614 L11.430136,8.25013601 L14.065864,10.8856386 L13.1356386,11.815864 L10.500136,9.18013601 L7.8643614,11.815864 L6.93413601,10.8856386 L9.57013601,8.25013601 L6.93413601,5.6143614 L7.8643614,4.68413601 L10.500136,7.32013601 L13.1356386,4.68413601 Z" id="Combined-Shape" fill="#FFFFFF"></path>
                    </g>
                </g>
            </g>
        </g>
    </g>
</svg>