<?xml version="1.0" encoding="UTF-8"?><svg id="_圖層_2" xmlns="http://www.w3.org/2000/svg" xmlns:xlink="http://www.w3.org/1999/xlink" viewBox="0 0 398.42 39.99"><defs><style>.cls-1{fill:none;}.cls-2{clip-path:url(#clippath);}.cls-3{fill:url(#_未命名漸層_2);}.cls-4{fill:url(#_未命名漸層_4);}</style><linearGradient id="_未命名漸層_4" x1="-98.07" y1="-296.55" x2="-98.07" y2="-330.54" gradientTransform="translate(101.15 -293.55) rotate(-180)" gradientUnits="userSpaceOnUse"><stop offset="0" stop-color="#efd393"/><stop offset=".37" stop-color="#a27924"/><stop offset=".74" stop-color="#eece80"/><stop offset="1" stop-color="#a27924"/></linearGradient><clipPath id="clippath"><path class="cls-1" d="M139.85,3.03l-135.17-.02c-1.65,0-1.65,0-1.65,1.56,0,10.12-.01,20.24,0,30.36,0,2.07-.51,2.06,2.19,2.06,50.51-.04,177.65,.05,228.16-.05,48.99-.1,97.98-.03,146.97,0,1.78,0,3.15-.54,4.39-1.72,2.79-2.67,4.48-5.95,6.05-9.3,2.32-4.99,4.17-10.11,4.63-15.59v-2.74c-.04-.33-.1-.66-.12-.99-.26-2.86-.94-3.46-3.94-3.47-57.63-.06-115.26,.08-172.88-.07-26.21-.07-52.42-.01-78.63-.01Z"/></clipPath><linearGradient id="_未命名漸層_2" x1="-98.06" y1="-296.53" x2="-98.06" y2="-330.55" gradientTransform="translate(101.15 -293.55) rotate(-180)" gradientUnits="userSpaceOnUse"><stop offset="0" stop-color="#080808"/><stop offset="1" stop-color="#3a3a3a"/></linearGradient></defs><g id="_圖層_1-2"><g><path class="cls-4" d="M5.17,39.98c-1.76,0-3.1-.01-4.2-1.16C-.08,37.73-.02,36.42,.01,35.63c0-.19,.02-.42,.02-.7-.01-7.36-.01-14.73,0-22.09V4.56C.03,1.33,1.37,0,4.68,0L139.85,.03c8.26,0,16.53,0,24.79-.01,17.65-.01,35.9-.03,53.85,.02,34.87,.1,70.32,.08,104.61,.07,22.76,0,45.51-.02,68.27,0,4.53,0,6.53,1.8,6.92,6.2,.02,.19,.04,.36,.06,.53l.07,.73v3c-.45,5.15-1.96,10.27-4.91,16.6-1.62,3.48-3.47,7.13-6.69,10.2-1.8,1.72-3.92,2.56-6.47,2.56l-31.3-.02c-37.91-.03-77.11-.05-115.66,.02-30.07,.06-60.65,.06-90.21,.05-20.44,0-117.51-.02-137.95,0h-.06ZM6.03,6.01v6.84c0,7.04,0,14.09,0,21.14,20.21-.02,117,0,137.15,0,29.57,0,60.13,0,90.2-.05,38.56-.08,77.77-.05,115.68-.02l31.3,.02c1.01,0,1.64-.24,2.32-.89,2.47-2.36,4.02-5.44,5.4-8.4,2.62-5.61,3.96-10.08,4.35-14.45v-2.51c-.05-.28-.09-.56-.11-.84-.03-.3-.05-.52-.08-.69-.2-.02-.48-.03-.87-.03-22.75-.02-45.5-.01-68.26,0-34.29,.01-69.75,.03-104.63-.07-17.94-.05-36.18-.04-53.83-.02-8.26,0-16.53,.01-24.79,.01l-133.82-.02Z"/><g class="cls-2"><polygon class="cls-3" points="395.42 3 3 2.98 3 36.98 395.42 37 395.42 3"/></g></g></g></svg>