<?xml version="1.0" encoding="utf-8"?>
<!-- Generator: Adobe Illustrator 26.5.0, SVG Export Plug-In . SVG Version: 6.00 Build 0)  -->
<svg version="1.1" id="_圖層_2" xmlns="http://www.w3.org/2000/svg" xmlns:xlink="http://www.w3.org/1999/xlink" x="0px" y="0px"
	 viewBox="0 0 267 30" style="enable-background:new 0 0 267 30;" xml:space="preserve">
<style type="text/css">
	.st0{clip-path:url(#SVGID_00000082336413661422738950000016133262846804504724_);}
	.st1{fill:#F0CE00;}
	.st2{clip-path:url(#SVGID_00000075878506507926543960000006715336954629805453_);}
	.st3{fill:url(#SVGID_00000057860678315628492950000004015071180297577645_);}
</style>
<g id="_圖層_1-2">
	<g>
		<g>
			<g>
				<defs>
					<path id="SVGID_1_" d="M-39.1,0h-95.5c-1.4,0-1.4,0-1.4,1.4c0,8.9,0,17.9,0,26.8c0,1.7-0.3,1.8,1.3,1.8h0.3c0.1,0,0.1,0,0.2,0
						c42.7,0,221.4,0,264.2-0.1c41.4-0.1,82.8,0,124.3,0c1.5,0,2.7-0.5,3.7-1.5c2.4-2.4,3.8-5.2,5.1-8.2c2-4.4,3.5-8.9,3.9-13.8V4
						c0-0.3-0.1-0.6-0.1-0.9c-0.2-2.5-0.8-3.1-3.3-3.1c-48.7,0-97.5,0.2-146.2,0C95.2,0-17,0-39.1,0L-39.1,0z"/>
				</defs>
				<clipPath id="SVGID_00000149345227780012523070000008519915438370503347_">
					<use xlink:href="#SVGID_1_"  style="overflow:visible;"/>
				</clipPath>
				<g style="clip-path:url(#SVGID_00000149345227780012523070000008519915438370503347_);">
					<polygon class="st1" points="267,0 -136,0 -136,30 267,30 					"/>
				</g>
			</g>
		</g>
		<g>
			<g>
				<defs>
					<path id="SVGID_00000177446318681148464580000008046646174441473925_" d="M117.4,0c48.7,0.1,97.4,0,146.2,0.1
						c2.5,0,3.1,0.5,3.3,3.1c0,0.3,0.1,0.6,0.1,0.9v2.4c-0.3,3.7-1.3,7.2-2.6,10.5H-136V1.4c0-1.3,0-1.4,1.2-1.4h95.6
						C-17,0,95.2,0,117.4,0L117.4,0z"/>
				</defs>
				<clipPath id="SVGID_00000114060522214567968590000002484637001543139750_">
					<use xlink:href="#SVGID_00000177446318681148464580000008046646174441473925_"  style="overflow:visible;"/>
				</clipPath>
				<g style="clip-path:url(#SVGID_00000114060522214567968590000002484637001543139750_);">
					
						<linearGradient id="SVGID_00000160159160450161261960000012494618690010645890_" gradientUnits="userSpaceOnUse" x1="65.48" y1="-920.15" x2="65.48" y2="-937.15" gradientTransform="matrix(1 0 0 -1 2.000000e-02 -920.15)">
						<stop  offset="0" style="stop-color:#F5DB32"/>
						<stop  offset="1" style="stop-color:#F5E26F"/>
					</linearGradient>
					<polygon style="fill:url(#SVGID_00000160159160450161261960000012494618690010645890_);" points="-136,0 267,0 267,17 -136,17 
											"/>
				</g>
			</g>
		</g>
	</g>
</g>
</svg>
